<?xml version="1.0" encoding="UTF-8" standalone="no"?>
<!DOCTYPE svg PUBLIC "-//W3C//DTD SVG 1.1//EN"
 "http://www.w3.org/Graphics/SVG/1.1/DTD/svg11.dtd">
<!-- Generated by graphviz version 2.40.1 (0)
 -->
<!-- Title: ClassDiagram Pages: 1 -->
<svg width="605pt" height="691pt"
 viewBox="0.00 0.00 604.50 691.00" xmlns="http://www.w3.org/2000/svg" xmlns:xlink="http://www.w3.org/1999/xlink">
<g id="graph0" class="graph" transform="scale(1 1) rotate(0) translate(4 687)">
<title>ClassDiagram</title>
<polygon fill="#ffffff" stroke="transparent" points="-4,4 -4,-687 600.5,-687 600.5,4 -4,4"/>
<!-- Game -->
<g id="node1" class="node">
<title>Game</title>
<polygon fill="none" stroke="#000000" points="35.5,-.5 35.5,-123.5 318.5,-123.5 318.5,-.5 35.5,-.5"/>
<text text-anchor="middle" x="177" y="-113.1" font-family="Bitstream Vera Sans" font-size="8.00" fill="#000000">Game</text>
<polyline fill="none" stroke="#000000" points="35.5,-106.5 318.5,-106.5 "/>
<text text-anchor="start" x="43.5" y="-96.1" font-family="Bitstream Vera Sans" font-size="8.00" fill="#000000">&#45; players: pair&lt;Player&gt; </text>
<text text-anchor="start" x="43.5" y="-87.1" font-family="Bitstream Vera Sans" font-size="8.00" fill="#000000"> &#45; turn: Turn </text>
<polyline fill="none" stroke="#000000" points="35.5,-80.5 318.5,-80.5 "/>
<text text-anchor="start" x="43.5" y="-70.1" font-family="Bitstream Vera Sans" font-size="8.00" fill="#000000">+ Game() </text>
<text text-anchor="start" x="43.5" y="-61.1" font-family="Bitstream Vera Sans" font-size="8.00" fill="#000000"> + draw(): void </text>
<text text-anchor="start" x="43.5" y="-52.1" font-family="Bitstream Vera Sans" font-size="8.00" fill="#000000"> + toggleMode(position: Position): void </text>
<text text-anchor="start" x="43.5" y="-43.1" font-family="Bitstream Vera Sans" font-size="8.00" fill="#000000"> + summon(cardIndex: int, position: optional&lt;Position&gt;): void </text>
<text text-anchor="start" x="43.5" y="-34.1" font-family="Bitstream Vera Sans" font-size="8.00" fill="#000000"> + attack(monster: Position, target: optional&lt;Position&gt;): void </text>
<text text-anchor="start" x="43.5" y="-25.1" font-family="Bitstream Vera Sans" font-size="8.00" fill="#000000"> + endPhase(): void </text>
<text text-anchor="start" x="43.5" y="-16.1" font-family="Bitstream Vera Sans" font-size="8.00" fill="#000000"> + getPlayers(): pair&lt;Player&gt; </text>
<text text-anchor="start" x="43.5" y="-7.1" font-family="Bitstream Vera Sans" font-size="8.00" fill="#000000"> + getTurn(): Turn </text>
</g>
<!-- Turn -->
<g id="node2" class="node">
<title>Turn</title>
<polygon fill="none" stroke="#000000" points="0,-160.5 0,-301.5 154,-301.5 154,-160.5 0,-160.5"/>
<text text-anchor="middle" x="77" y="-291.1" font-family="Bitstream Vera Sans" font-size="8.00" fill="#000000">Turn</text>
<polyline fill="none" stroke="#000000" points="0,-284.5 154,-284.5 "/>
<text text-anchor="start" x="8" y="-274.1" font-family="Bitstream Vera Sans" font-size="8.00" fill="#000000">&#45; phase: Phase </text>
<text text-anchor="start" x="8" y="-265.1" font-family="Bitstream Vera Sans" font-size="8.00" fill="#000000"> &#45; playerIndex: int </text>
<text text-anchor="start" x="8" y="-256.1" font-family="Bitstream Vera Sans" font-size="8.00" fill="#000000"> &#45; summonedMonster: bool </text>
<text text-anchor="start" x="8" y="-247.1" font-family="Bitstream Vera Sans" font-size="8.00" fill="#000000"> &#45; summonedMagic: bool </text>
<text text-anchor="start" x="8" y="-238.1" font-family="Bitstream Vera Sans" font-size="8.00" fill="#000000"> &#45; attacked: pair&lt;bool&gt; </text>
<polyline fill="none" stroke="#000000" points="0,-231.5 154,-231.5 "/>
<text text-anchor="start" x="8" y="-221.1" font-family="Bitstream Vera Sans" font-size="8.00" fill="#000000">+ Turn(playerIndex: int) </text>
<text text-anchor="start" x="8" y="-212.1" font-family="Bitstream Vera Sans" font-size="8.00" fill="#000000"> + endPhase(): void </text>
<text text-anchor="start" x="8" y="-203.1" font-family="Bitstream Vera Sans" font-size="8.00" fill="#000000"> + getPhase(): Phase </text>
<text text-anchor="start" x="8" y="-194.1" font-family="Bitstream Vera Sans" font-size="8.00" fill="#000000"> + getPlayerIndex(): int </text>
<text text-anchor="start" x="8" y="-185.1" font-family="Bitstream Vera Sans" font-size="8.00" fill="#000000"> + hasSummonedMonster: bool </text>
<text text-anchor="start" x="8" y="-176.1" font-family="Bitstream Vera Sans" font-size="8.00" fill="#000000"> + hasSummonedMagic: bool </text>
<text text-anchor="start" x="8" y="-167.1" font-family="Bitstream Vera Sans" font-size="8.00" fill="#000000"> + hasAttacked(index: int): bool </text>
</g>
<!-- Turn&#45;&gt;Game -->
<g id="edge4" class="edge">
<title>Turn&#45;&gt;Game</title>
<path fill="none" stroke="#000000" d="M94.75,-160.308C94.75,-160.308 94.75,-135.547 94.75,-135.547"/>
<polygon fill="#000000" stroke="#000000" points="94.7501,-135.547 90.75,-129.5471 94.75,-123.547 98.75,-129.547 94.7501,-135.547"/>
</g>
<!-- Phase -->
<g id="node3" class="node">
<title>Phase</title>
<polygon fill="none" stroke="#000000" points="25.5,-342.5 25.5,-421.5 126.5,-421.5 126.5,-342.5 25.5,-342.5"/>
<text text-anchor="start" x="33.5" y="-411.1" font-family="Bitstream Vera Sans" font-size="8.00" fill="#000000">&lt;&lt;enumeration&gt;&gt; </text>
<text text-anchor="middle" x="76" y="-402.1" font-family="Bitstream Vera Sans" font-size="8.00" fill="#000000"> Phase</text>
<polyline fill="none" stroke="#000000" points="25.5,-395.5 126.5,-395.5 "/>
<text text-anchor="start" x="33.5" y="-385.1" font-family="Bitstream Vera Sans" font-size="8.00" fill="#000000">Draw </text>
<text text-anchor="start" x="33.5" y="-376.1" font-family="Bitstream Vera Sans" font-size="8.00" fill="#000000"> Position </text>
<text text-anchor="start" x="33.5" y="-367.1" font-family="Bitstream Vera Sans" font-size="8.00" fill="#000000"> Summon </text>
<text text-anchor="start" x="33.5" y="-358.1" font-family="Bitstream Vera Sans" font-size="8.00" fill="#000000"> Battle </text>
<text text-anchor="start" x="33.5" y="-349.1" font-family="Bitstream Vera Sans" font-size="8.00" fill="#000000"> End </text>
</g>
<!-- Phase&#45;&gt;Turn -->
<g id="edge3" class="edge">
<title>Phase&#45;&gt;Turn</title>
<path fill="none" stroke="#000000" d="M76,-342.3265C76,-342.3265 76,-313.654 76,-313.654"/>
<polygon fill="#000000" stroke="#000000" points="76.0001,-313.654 72,-307.6541 76,-301.654 80,-307.654 76.0001,-313.654"/>
</g>
<!-- Player -->
<g id="node4" class="node">
<title>Player</title>
<polygon fill="none" stroke="#000000" points="172.5,-169.5 172.5,-292.5 381.5,-292.5 381.5,-169.5 172.5,-169.5"/>
<text text-anchor="middle" x="277" y="-282.1" font-family="Bitstream Vera Sans" font-size="8.00" fill="#000000">Player</text>
<polyline fill="none" stroke="#000000" points="172.5,-275.5 381.5,-275.5 "/>
<text text-anchor="start" x="180.5" y="-265.1" font-family="Bitstream Vera Sans" font-size="8.00" fill="#000000">&#45; life: int </text>
<text text-anchor="start" x="180.5" y="-256.1" font-family="Bitstream Vera Sans" font-size="8.00" fill="#000000"> &#45; deck: stack&lt;Card&gt; </text>
<text text-anchor="start" x="180.5" y="-247.1" font-family="Bitstream Vera Sans" font-size="8.00" fill="#000000"> &#45; hand: vector&lt;Card&gt; </text>
<text text-anchor="start" x="180.5" y="-238.1" font-family="Bitstream Vera Sans" font-size="8.00" fill="#000000"> &#45; field: pair&lt;optional&lt;MonsterCard&gt;&gt; </text>
<polyline fill="none" stroke="#000000" points="172.5,-231.5 381.5,-231.5 "/>
<text text-anchor="start" x="180.5" y="-221.1" font-family="Bitstream Vera Sans" font-size="8.00" fill="#000000">+ Player() </text>
<text text-anchor="start" x="180.5" y="-212.1" font-family="Bitstream Vera Sans" font-size="8.00" fill="#000000"> + drawCard(): void </text>
<text text-anchor="start" x="180.5" y="-203.1" font-family="Bitstream Vera Sans" font-size="8.00" fill="#000000"> + reduceLife(by: int) </text>
<text text-anchor="start" x="180.5" y="-194.1" font-family="Bitstream Vera Sans" font-size="8.00" fill="#000000"> + getLife(): int </text>
<text text-anchor="start" x="180.5" y="-185.1" font-family="Bitstream Vera Sans" font-size="8.00" fill="#000000"> + getHand(): vector&lt;Card&gt; </text>
<text text-anchor="start" x="180.5" y="-176.1" font-family="Bitstream Vera Sans" font-size="8.00" fill="#000000"> + getField(): pair&lt;optional&lt;MonsterCard&gt;&gt; </text>
</g>
<!-- Player&#45;&gt;Game -->
<g id="edge8" class="edge">
<title>Player&#45;&gt;Game</title>
<path fill="none" stroke="#000000" d="M245.5,-169.0303C245.5,-169.0303 245.5,-135.6798 245.5,-135.6798"/>
<polygon fill="none" stroke="#000000" points="245.5001,-135.6798 241.5,-129.6798 245.5,-123.6798 249.5,-129.6797 245.5001,-135.6798"/>
</g>
<!-- Card -->
<g id="node5" class="node">
<title>Card</title>
<polygon fill="none" stroke="#000000" points="145,-338.5 145,-425.5 411,-425.5 411,-338.5 145,-338.5"/>
<text text-anchor="middle" x="278" y="-415.1" font-family="Bitstream Vera Sans" font-size="8.00" fill="#000000">Card</text>
<polyline fill="none" stroke="#000000" points="145,-408.5 411,-408.5 "/>
<text text-anchor="start" x="153" y="-398.1" font-family="Bitstream Vera Sans" font-size="8.00" fill="#000000">&#45; name: string </text>
<polyline fill="none" stroke="#000000" points="145,-391.5 411,-391.5 "/>
<text text-anchor="start" x="153" y="-381.1" font-family="Bitstream Vera Sans" font-size="8.00" fill="#000000">+ Card(name: string) </text>
<text text-anchor="start" x="153" y="-372.1" font-family="Bitstream Vera Sans" font-size="8.00" fill="#000000"> + apply(game: Game, position: optional&lt;Position&gt;): void </text>
<text text-anchor="start" x="153" y="-363.1" font-family="Bitstream Vera Sans" font-size="8.00" fill="#000000"> + getName(): string </text>
<text text-anchor="start" x="153" y="-354.1" font-family="Bitstream Vera Sans" font-size="8.00" fill="#000000"> + getTarget(): Target </text>
<text text-anchor="start" x="153" y="-345.1" font-family="Bitstream Vera Sans" font-size="8.00" fill="#000000"> + getDescription(): string </text>
</g>
<!-- Card&#45;&gt;Player -->
<g id="edge7" class="edge">
<title>Card&#45;&gt;Player</title>
<path fill="none" stroke="#000000" d="M277,-338.3245C277,-338.3245 277,-304.5468 277,-304.5468"/>
<polygon fill="none" stroke="#000000" points="277.0001,-304.5468 273,-298.5468 277,-292.5468 281,-298.5467 277.0001,-304.5468"/>
</g>
<!-- Target -->
<g id="node6" class="node">
<title>Target</title>
<polygon fill="none" stroke="#000000" points="131.5,-613 131.5,-674 232.5,-674 232.5,-613 131.5,-613"/>
<text text-anchor="start" x="139.5" y="-663.6" font-family="Bitstream Vera Sans" font-size="8.00" fill="#000000">&lt;&lt;enumeration&gt;&gt; </text>
<text text-anchor="middle" x="182" y="-654.6" font-family="Bitstream Vera Sans" font-size="8.00" fill="#000000"> Target</text>
<polyline fill="none" stroke="#000000" points="131.5,-648 232.5,-648 "/>
<text text-anchor="start" x="139.5" y="-637.6" font-family="Bitstream Vera Sans" font-size="8.00" fill="#000000">NoTarget </text>
<text text-anchor="start" x="139.5" y="-628.6" font-family="Bitstream Vera Sans" font-size="8.00" fill="#000000"> Self </text>
<text text-anchor="start" x="139.5" y="-619.6" font-family="Bitstream Vera Sans" font-size="8.00" fill="#000000"> Opponent </text>
</g>
<!-- MagicCard -->
<g id="node7" class="node">
<title>MagicCard</title>
<polygon fill="none" stroke="#000000" points="131,-467 131,-563 233,-563 233,-467 131,-467"/>
<text text-anchor="middle" x="182" y="-552.6" font-family="Bitstream Vera Sans" font-size="8.00" fill="#000000">MagicCard</text>
<polyline fill="none" stroke="#000000" points="131,-546 233,-546 "/>
<text text-anchor="start" x="139" y="-535.6" font-family="Bitstream Vera Sans" font-size="8.00" fill="#000000">&#45; description: string </text>
<text text-anchor="start" x="139" y="-526.6" font-family="Bitstream Vera Sans" font-size="8.00" fill="#000000"> &#45; attackDelta: int </text>
<text text-anchor="start" x="139" y="-517.6" font-family="Bitstream Vera Sans" font-size="8.00" fill="#000000"> &#45; defenseDelta: int </text>
<text text-anchor="start" x="139" y="-508.6" font-family="Bitstream Vera Sans" font-size="8.00" fill="#000000"> &#45; lifeDelta: int </text>
<text text-anchor="start" x="139" y="-499.6" font-family="Bitstream Vera Sans" font-size="8.00" fill="#000000"> &#45; destroy: bool </text>
<text text-anchor="start" x="139" y="-490.6" font-family="Bitstream Vera Sans" font-size="8.00" fill="#000000"> &#45; target: Target </text>
<polyline fill="none" stroke="#000000" points="131,-484 233,-484 "/>
<text text-anchor="start" x="139" y="-473.6" font-family="Bitstream Vera Sans" font-size="8.00" fill="#000000">+ MagicCard(...) </text>
</g>
<!-- Target&#45;&gt;MagicCard -->
<g id="edge6" class="edge">
<title>Target&#45;&gt;MagicCard</title>
<path fill="none" stroke="#000000" d="M182,-612.721C182,-612.721 182,-575.0942 182,-575.0942"/>
<polygon fill="#000000" stroke="#000000" points="182.0001,-575.0942 178,-569.0943 182,-563.0942 186,-569.0942 182.0001,-575.0942"/>
</g>
<!-- MagicCard&#45;&gt;Card -->
<g id="edge1" class="edge">
<title>MagicCard&#45;&gt;Card</title>
<path fill="none" stroke="#000000" d="M189,-466.9839C189,-466.9839 189,-435.5262 189,-435.5262"/>
<polygon fill="none" stroke="#000000" points="192.5001,-435.5261 189,-425.5262 185.5001,-435.5262 192.5001,-435.5261"/>
</g>
<!-- MonsterCard -->
<g id="node8" class="node">
<title>MonsterCard</title>
<polygon fill="none" stroke="#000000" points="251,-462.5 251,-567.5 499,-567.5 499,-462.5 251,-462.5"/>
<text text-anchor="middle" x="375" y="-557.1" font-family="Bitstream Vera Sans" font-size="8.00" fill="#000000">MonsterCard</text>
<polyline fill="none" stroke="#000000" points="251,-550.5 499,-550.5 "/>
<text text-anchor="start" x="259" y="-540.1" font-family="Bitstream Vera Sans" font-size="8.00" fill="#000000">&#45; attack: int </text>
<text text-anchor="start" x="259" y="-531.1" font-family="Bitstream Vera Sans" font-size="8.00" fill="#000000"> &#45; defense: int </text>
<text text-anchor="start" x="259" y="-522.1" font-family="Bitstream Vera Sans" font-size="8.00" fill="#000000"> &#45; mode: Mode </text>
<polyline fill="none" stroke="#000000" points="251,-515.5 499,-515.5 "/>
<text text-anchor="start" x="259" y="-505.1" font-family="Bitstream Vera Sans" font-size="8.00" fill="#000000">+ MonsterCard(name: string, attack: int, defense: int) </text>
<text text-anchor="start" x="259" y="-496.1" font-family="Bitstream Vera Sans" font-size="8.00" fill="#000000"> + toggleMode(): Mode </text>
<text text-anchor="start" x="259" y="-487.1" font-family="Bitstream Vera Sans" font-size="8.00" fill="#000000"> + getAttack(): int </text>
<text text-anchor="start" x="259" y="-478.1" font-family="Bitstream Vera Sans" font-size="8.00" fill="#000000"> + getDefense(): int </text>
<text text-anchor="start" x="259" y="-469.1" font-family="Bitstream Vera Sans" font-size="8.00" fill="#000000"> + getMode(): Mode </text>
</g>
<!-- MonsterCard&#45;&gt;Card -->
<g id="edge2" class="edge">
<title>MonsterCard&#45;&gt;Card</title>
<path fill="none" stroke="#000000" d="M331,-462.4349C331,-462.4349 331,-435.6182 331,-435.6182"/>
<polygon fill="none" stroke="#000000" points="334.5001,-435.6182 331,-425.6182 327.5001,-435.6183 334.5001,-435.6182"/>
</g>
<!-- Mode -->
<g id="node9" class="node">
<title>Mode</title>
<polygon fill="none" stroke="#000000" points="324.5,-617.5 324.5,-669.5 425.5,-669.5 425.5,-617.5 324.5,-617.5"/>
<text text-anchor="start" x="332.5" y="-659.1" font-family="Bitstream Vera Sans" font-size="8.00" fill="#000000">&lt;&lt;enumeration&gt;&gt; </text>
<text text-anchor="middle" x="375" y="-650.1" font-family="Bitstream Vera Sans" font-size="8.00" fill="#000000"> Mode</text>
<polyline fill="none" stroke="#000000" points="324.5,-643.5 425.5,-643.5 "/>
<text text-anchor="start" x="332.5" y="-633.1" font-family="Bitstream Vera Sans" font-size="8.00" fill="#000000">Attack </text>
<text text-anchor="start" x="332.5" y="-624.1" font-family="Bitstream Vera Sans" font-size="8.00" fill="#000000"> Defense </text>
</g>
<!-- Mode&#45;&gt;MonsterCard -->
<g id="edge5" class="edge">
<title>Mode&#45;&gt;MonsterCard</title>
<path fill="none" stroke="#000000" d="M375,-617.4961C375,-617.4961 375,-579.5091 375,-579.5091"/>
<polygon fill="#000000" stroke="#000000" points="375.0001,-579.5091 371,-573.5092 375,-567.5091 379,-573.5091 375.0001,-579.5091"/>
</g>
<!-- Position -->
<g id="node10" class="node">
<title>Position</title>
<polygon fill="none" stroke="#000000" points="443.5,-604.5 443.5,-682.5 596.5,-682.5 596.5,-604.5 443.5,-604.5"/>
<text text-anchor="middle" x="520" y="-672.1" font-family="Bitstream Vera Sans" font-size="8.00" fill="#000000">Position</text>
<polyline fill="none" stroke="#000000" points="443.5,-665.5 596.5,-665.5 "/>
<text text-anchor="start" x="451.5" y="-655.1" font-family="Bitstream Vera Sans" font-size="8.00" fill="#000000">&#45; self: bool </text>
<text text-anchor="start" x="451.5" y="-646.1" font-family="Bitstream Vera Sans" font-size="8.00" fill="#000000"> &#45; index: int </text>
<polyline fill="none" stroke="#000000" points="443.5,-639.5 596.5,-639.5 "/>
<text text-anchor="start" x="451.5" y="-629.1" font-family="Bitstream Vera Sans" font-size="8.00" fill="#000000">+ Position(self: bool, index: int) </text>
<text text-anchor="start" x="451.5" y="-620.1" font-family="Bitstream Vera Sans" font-size="8.00" fill="#000000"> + isSelf(): bool </text>
<text text-anchor="start" x="451.5" y="-611.1" font-family="Bitstream Vera Sans" font-size="8.00" fill="#000000"> + getIndex(): int </text>
</g>
</g>
</svg>
