<?xml version="1.0" encoding="UTF-8" standalone="no"?>
<!DOCTYPE svg PUBLIC "-//W3C//DTD SVG 1.1//EN"
 "http://www.w3.org/Graphics/SVG/1.1/DTD/svg11.dtd">
<!-- Generated by graphviz version 2.40.1 (0)
 -->
<!-- Title: ClassDiagram Pages: 1 -->
<svg width="688pt" height="674pt"
 viewBox="0.00 0.00 687.50 674.00" xmlns="http://www.w3.org/2000/svg" xmlns:xlink="http://www.w3.org/1999/xlink">
<g id="graph0" class="graph" transform="scale(1 1) rotate(0) translate(4 670)">
<title>ClassDiagram</title>
<polygon fill="#ffffff" stroke="transparent" points="-4,4 -4,-670 683.5,-670 683.5,4 -4,4"/>
<!-- Game -->
<g id="node1" class="node">
<title>Game</title>
<polygon fill="none" stroke="#000000" points="26.5,-.5 26.5,-123.5 327.5,-123.5 327.5,-.5 26.5,-.5"/>
<text text-anchor="middle" x="177" y="-113.1" font-family="Bitstream Vera Sans" font-size="8.00" fill="#000000">Game</text>
<polyline fill="none" stroke="#000000" points="26.5,-106.5 327.5,-106.5 "/>
<text text-anchor="start" x="34.5" y="-96.1" font-family="Bitstream Vera Sans" font-size="8.00" fill="#000000">&#45; players: pair&lt;Player&gt; </text>
<text text-anchor="start" x="34.5" y="-87.1" font-family="Bitstream Vera Sans" font-size="8.00" fill="#000000"> &#45; turn: Turn </text>
<polyline fill="none" stroke="#000000" points="26.5,-80.5 327.5,-80.5 "/>
<text text-anchor="start" x="34.5" y="-70.1" font-family="Bitstream Vera Sans" font-size="8.00" fill="#000000">+ Game() </text>
<text text-anchor="start" x="34.5" y="-61.1" font-family="Bitstream Vera Sans" font-size="8.00" fill="#000000"> + draw(): void </text>
<text text-anchor="start" x="34.5" y="-52.1" font-family="Bitstream Vera Sans" font-size="8.00" fill="#000000"> + toggleMode(position: Position): void </text>
<text text-anchor="start" x="34.5" y="-43.1" font-family="Bitstream Vera Sans" font-size="8.00" fill="#000000"> + summon(card: Card, position: optional&lt;Position&gt;): void </text>
<text text-anchor="start" x="34.5" y="-34.1" font-family="Bitstream Vera Sans" font-size="8.00" fill="#000000"> + attack(monster: MonsterCard, target: optional&lt;Position&gt;): void </text>
<text text-anchor="start" x="34.5" y="-25.1" font-family="Bitstream Vera Sans" font-size="8.00" fill="#000000"> + endPhase(): void </text>
<text text-anchor="start" x="34.5" y="-16.1" font-family="Bitstream Vera Sans" font-size="8.00" fill="#000000"> + getPlayers(): pair&lt;Player&gt; </text>
<text text-anchor="start" x="34.5" y="-7.1" font-family="Bitstream Vera Sans" font-size="8.00" fill="#000000"> + getTurn(): Turn </text>
</g>
<!-- Turn -->
<g id="node2" class="node">
<title>Turn</title>
<polygon fill="none" stroke="#000000" points="0,-160.5 0,-301.5 154,-301.5 154,-160.5 0,-160.5"/>
<text text-anchor="middle" x="77" y="-291.1" font-family="Bitstream Vera Sans" font-size="8.00" fill="#000000">Turn</text>
<polyline fill="none" stroke="#000000" points="0,-284.5 154,-284.5 "/>
<text text-anchor="start" x="8" y="-274.1" font-family="Bitstream Vera Sans" font-size="8.00" fill="#000000">&#45; phase: Phase </text>
<text text-anchor="start" x="8" y="-265.1" font-family="Bitstream Vera Sans" font-size="8.00" fill="#000000"> &#45; playerIndex: int </text>
<text text-anchor="start" x="8" y="-256.1" font-family="Bitstream Vera Sans" font-size="8.00" fill="#000000"> &#45; summonedMonster: bool </text>
<text text-anchor="start" x="8" y="-247.1" font-family="Bitstream Vera Sans" font-size="8.00" fill="#000000"> &#45; summonedMagic: bool </text>
<text text-anchor="start" x="8" y="-238.1" font-family="Bitstream Vera Sans" font-size="8.00" fill="#000000"> &#45; attacked: pair&lt;bool&gt; </text>
<polyline fill="none" stroke="#000000" points="0,-231.5 154,-231.5 "/>
<text text-anchor="start" x="8" y="-221.1" font-family="Bitstream Vera Sans" font-size="8.00" fill="#000000">+ Turn(playerIndex: int) </text>
<text text-anchor="start" x="8" y="-212.1" font-family="Bitstream Vera Sans" font-size="8.00" fill="#000000"> + endPhase(): void </text>
<text text-anchor="start" x="8" y="-203.1" font-family="Bitstream Vera Sans" font-size="8.00" fill="#000000"> + getPhase(): Phase </text>
<text text-anchor="start" x="8" y="-194.1" font-family="Bitstream Vera Sans" font-size="8.00" fill="#000000"> + getPlayerIndex(): int </text>
<text text-anchor="start" x="8" y="-185.1" font-family="Bitstream Vera Sans" font-size="8.00" fill="#000000"> + hasSummonedMonster: bool </text>
<text text-anchor="start" x="8" y="-176.1" font-family="Bitstream Vera Sans" font-size="8.00" fill="#000000"> + hasSummonedMagic: bool </text>
<text text-anchor="start" x="8" y="-167.1" font-family="Bitstream Vera Sans" font-size="8.00" fill="#000000"> + hasAttacked(index: int): bool </text>
</g>
<!-- Turn&#45;&gt;Game -->
<g id="edge4" class="edge">
<title>Turn&#45;&gt;Game</title>
<path fill="none" stroke="#000000" d="M90.25,-160.308C90.25,-160.308 90.25,-135.547 90.25,-135.547"/>
<polygon fill="#000000" stroke="#000000" points="90.2501,-135.547 86.25,-129.5471 90.25,-123.547 94.25,-129.547 90.2501,-135.547"/>
</g>
<!-- Phase -->
<g id="node3" class="node">
<title>Phase</title>
<polygon fill="none" stroke="#000000" points="25.5,-338.5 25.5,-417.5 126.5,-417.5 126.5,-338.5 25.5,-338.5"/>
<text text-anchor="start" x="33.5" y="-407.1" font-family="Bitstream Vera Sans" font-size="8.00" fill="#000000">&lt;&lt;enumeration&gt;&gt; </text>
<text text-anchor="middle" x="76" y="-398.1" font-family="Bitstream Vera Sans" font-size="8.00" fill="#000000"> Phase</text>
<polyline fill="none" stroke="#000000" points="25.5,-391.5 126.5,-391.5 "/>
<text text-anchor="start" x="33.5" y="-381.1" font-family="Bitstream Vera Sans" font-size="8.00" fill="#000000">Draw </text>
<text text-anchor="start" x="33.5" y="-372.1" font-family="Bitstream Vera Sans" font-size="8.00" fill="#000000"> Position </text>
<text text-anchor="start" x="33.5" y="-363.1" font-family="Bitstream Vera Sans" font-size="8.00" fill="#000000"> Summon </text>
<text text-anchor="start" x="33.5" y="-354.1" font-family="Bitstream Vera Sans" font-size="8.00" fill="#000000"> Battle </text>
<text text-anchor="start" x="33.5" y="-345.1" font-family="Bitstream Vera Sans" font-size="8.00" fill="#000000"> End </text>
</g>
<!-- Phase&#45;&gt;Turn -->
<g id="edge3" class="edge">
<title>Phase&#45;&gt;Turn</title>
<path fill="none" stroke="#000000" d="M76,-338.2197C76,-338.2197 76,-313.6836 76,-313.6836"/>
<polygon fill="#000000" stroke="#000000" points="76.0001,-313.6836 72,-307.6837 76,-301.6836 80,-307.6836 76.0001,-313.6836"/>
</g>
<!-- Player -->
<g id="node4" class="node">
<title>Player</title>
<polygon fill="none" stroke="#000000" points="172.5,-169.5 172.5,-292.5 381.5,-292.5 381.5,-169.5 172.5,-169.5"/>
<text text-anchor="middle" x="277" y="-282.1" font-family="Bitstream Vera Sans" font-size="8.00" fill="#000000">Player</text>
<polyline fill="none" stroke="#000000" points="172.5,-275.5 381.5,-275.5 "/>
<text text-anchor="start" x="180.5" y="-265.1" font-family="Bitstream Vera Sans" font-size="8.00" fill="#000000">&#45; life: int </text>
<text text-anchor="start" x="180.5" y="-256.1" font-family="Bitstream Vera Sans" font-size="8.00" fill="#000000"> &#45; deck: stack&lt;Card&gt; </text>
<text text-anchor="start" x="180.5" y="-247.1" font-family="Bitstream Vera Sans" font-size="8.00" fill="#000000"> &#45; hand: vector&lt;Card&gt; </text>
<text text-anchor="start" x="180.5" y="-238.1" font-family="Bitstream Vera Sans" font-size="8.00" fill="#000000"> &#45; field: pair&lt;optional&lt;MonsterCard&gt;&gt; </text>
<polyline fill="none" stroke="#000000" points="172.5,-231.5 381.5,-231.5 "/>
<text text-anchor="start" x="180.5" y="-221.1" font-family="Bitstream Vera Sans" font-size="8.00" fill="#000000">+ Player() </text>
<text text-anchor="start" x="180.5" y="-212.1" font-family="Bitstream Vera Sans" font-size="8.00" fill="#000000"> + drawCard(): void </text>
<text text-anchor="start" x="180.5" y="-203.1" font-family="Bitstream Vera Sans" font-size="8.00" fill="#000000"> + reduceLife(by: int) </text>
<text text-anchor="start" x="180.5" y="-194.1" font-family="Bitstream Vera Sans" font-size="8.00" fill="#000000"> + getLife(): int </text>
<text text-anchor="start" x="180.5" y="-185.1" font-family="Bitstream Vera Sans" font-size="8.00" fill="#000000"> + getHand(): vector&lt;Card&gt; </text>
<text text-anchor="start" x="180.5" y="-176.1" font-family="Bitstream Vera Sans" font-size="8.00" fill="#000000"> + getField(): pair&lt;optional&lt;MonsterCard&gt;&gt; </text>
</g>
<!-- Player&#45;&gt;Game -->
<g id="edge7" class="edge">
<title>Player&#45;&gt;Game</title>
<path fill="none" stroke="#000000" d="M250,-169.0303C250,-169.0303 250,-135.6798 250,-135.6798"/>
<polygon fill="none" stroke="#000000" points="250.0001,-135.6798 246,-129.6798 250,-123.6798 254,-129.6797 250.0001,-135.6798"/>
</g>
<!-- Card -->
<g id="node5" class="node">
<title>Card</title>
<polygon fill="none" stroke="#000000" points="145,-339 145,-417 411,-417 411,-339 145,-339"/>
<text text-anchor="middle" x="278" y="-406.6" font-family="Bitstream Vera Sans" font-size="8.00" fill="#000000">Card</text>
<polyline fill="none" stroke="#000000" points="145,-400 411,-400 "/>
<text text-anchor="start" x="153" y="-389.6" font-family="Bitstream Vera Sans" font-size="8.00" fill="#000000">&#45; name: string </text>
<polyline fill="none" stroke="#000000" points="145,-383 411,-383 "/>
<text text-anchor="start" x="153" y="-372.6" font-family="Bitstream Vera Sans" font-size="8.00" fill="#000000">+ Card() </text>
<text text-anchor="start" x="153" y="-363.6" font-family="Bitstream Vera Sans" font-size="8.00" fill="#000000"> + apply(game: Game, position: optional&lt;Position&gt;): void </text>
<text text-anchor="start" x="153" y="-354.6" font-family="Bitstream Vera Sans" font-size="8.00" fill="#000000"> + getName(): string </text>
<text text-anchor="start" x="153" y="-345.6" font-family="Bitstream Vera Sans" font-size="8.00" fill="#000000"> + getTarget(): Target </text>
</g>
<!-- Card&#45;&gt;Player -->
<g id="edge6" class="edge">
<title>Card&#45;&gt;Player</title>
<path fill="none" stroke="#000000" d="M277,-338.9926C277,-338.9926 277,-304.6715 277,-304.6715"/>
<polygon fill="none" stroke="#000000" points="277.0001,-304.6715 273,-298.6716 277,-292.6715 281,-298.6715 277.0001,-304.6715"/>
</g>
<!-- Target -->
<g id="node6" class="node">
<title>Target</title>
<polygon fill="none" stroke="#000000" points="407.5,-596 407.5,-657 508.5,-657 508.5,-596 407.5,-596"/>
<text text-anchor="start" x="415.5" y="-646.6" font-family="Bitstream Vera Sans" font-size="8.00" fill="#000000">&lt;&lt;enumeration&gt;&gt; </text>
<text text-anchor="middle" x="458" y="-637.6" font-family="Bitstream Vera Sans" font-size="8.00" fill="#000000"> Target</text>
<polyline fill="none" stroke="#000000" points="407.5,-631 508.5,-631 "/>
<text text-anchor="start" x="415.5" y="-620.6" font-family="Bitstream Vera Sans" font-size="8.00" fill="#000000">NoTarget </text>
<text text-anchor="start" x="415.5" y="-611.6" font-family="Bitstream Vera Sans" font-size="8.00" fill="#000000"> Self </text>
<text text-anchor="start" x="415.5" y="-602.6" font-family="Bitstream Vera Sans" font-size="8.00" fill="#000000"> Opponent </text>
</g>
<!-- MagicCard -->
<g id="node7" class="node">
<title>MagicCard</title>
<polygon fill="none" stroke="#000000" points="164.5,-477 164.5,-528 269.5,-528 269.5,-477 164.5,-477"/>
<text text-anchor="middle" x="217" y="-517.6" font-family="Bitstream Vera Sans" font-size="8.00" fill="#000000">MagicCard</text>
<polyline fill="none" stroke="#000000" points="164.5,-511 269.5,-511 "/>
<text text-anchor="start" x="172.5" y="-500.6" font-family="Bitstream Vera Sans" font-size="8.00" fill="#000000">&#45; description : string </text>
<polyline fill="none" stroke="#000000" points="164.5,-494 269.5,-494 "/>
<text text-anchor="start" x="172.5" y="-483.6" font-family="Bitstream Vera Sans" font-size="8.00" fill="#000000">+ MagicCard() </text>
</g>
<!-- MagicCard&#45;&gt;Card -->
<g id="edge1" class="edge">
<title>MagicCard&#45;&gt;Card</title>
<path fill="none" stroke="#000000" d="M217,-476.7035C217,-476.7035 217,-427.0163 217,-427.0163"/>
<polygon fill="none" stroke="#000000" points="220.5001,-427.0163 217,-417.0163 213.5001,-427.0164 220.5001,-427.0163"/>
</g>
<!-- MonsterCard -->
<g id="node8" class="node">
<title>MonsterCard</title>
<polygon fill="none" stroke="#000000" points="287.5,-454.5 287.5,-550.5 390.5,-550.5 390.5,-454.5 287.5,-454.5"/>
<text text-anchor="middle" x="339" y="-540.1" font-family="Bitstream Vera Sans" font-size="8.00" fill="#000000">MonsterCard</text>
<polyline fill="none" stroke="#000000" points="287.5,-533.5 390.5,-533.5 "/>
<text text-anchor="start" x="295.5" y="-523.1" font-family="Bitstream Vera Sans" font-size="8.00" fill="#000000">&#45; attack: int </text>
<text text-anchor="start" x="295.5" y="-514.1" font-family="Bitstream Vera Sans" font-size="8.00" fill="#000000"> &#45; defense: int </text>
<text text-anchor="start" x="295.5" y="-505.1" font-family="Bitstream Vera Sans" font-size="8.00" fill="#000000"> &#45; mode: Mode </text>
<polyline fill="none" stroke="#000000" points="287.5,-498.5 390.5,-498.5 "/>
<text text-anchor="start" x="295.5" y="-488.1" font-family="Bitstream Vera Sans" font-size="8.00" fill="#000000">+ MonsterCard() </text>
<text text-anchor="start" x="295.5" y="-479.1" font-family="Bitstream Vera Sans" font-size="8.00" fill="#000000"> + getAttack(): int </text>
<text text-anchor="start" x="295.5" y="-470.1" font-family="Bitstream Vera Sans" font-size="8.00" fill="#000000"> + getDefense(): int </text>
<text text-anchor="start" x="295.5" y="-461.1" font-family="Bitstream Vera Sans" font-size="8.00" fill="#000000"> + getMode(): Mode </text>
</g>
<!-- MonsterCard&#45;&gt;Card -->
<g id="edge2" class="edge">
<title>MonsterCard&#45;&gt;Card</title>
<path fill="none" stroke="#000000" d="M339,-454.365C339,-454.365 339,-427.1497 339,-427.1497"/>
<polygon fill="none" stroke="#000000" points="342.5001,-427.1496 339,-417.1497 335.5001,-427.1497 342.5001,-427.1496"/>
</g>
<!-- Mode -->
<g id="node9" class="node">
<title>Mode</title>
<polygon fill="none" stroke="#000000" points="288.5,-600.5 288.5,-652.5 389.5,-652.5 389.5,-600.5 288.5,-600.5"/>
<text text-anchor="start" x="296.5" y="-642.1" font-family="Bitstream Vera Sans" font-size="8.00" fill="#000000">&lt;&lt;enumeration&gt;&gt; </text>
<text text-anchor="middle" x="339" y="-633.1" font-family="Bitstream Vera Sans" font-size="8.00" fill="#000000"> Mode</text>
<polyline fill="none" stroke="#000000" points="288.5,-626.5 389.5,-626.5 "/>
<text text-anchor="start" x="296.5" y="-616.1" font-family="Bitstream Vera Sans" font-size="8.00" fill="#000000">Attack </text>
<text text-anchor="start" x="296.5" y="-607.1" font-family="Bitstream Vera Sans" font-size="8.00" fill="#000000"> Defense </text>
</g>
<!-- Mode&#45;&gt;MonsterCard -->
<g id="edge5" class="edge">
<title>Mode&#45;&gt;MonsterCard</title>
<path fill="none" stroke="#000000" d="M339,-600.2028C339,-600.2028 339,-562.7856 339,-562.7856"/>
<polygon fill="#000000" stroke="#000000" points="339.0001,-562.7856 335,-556.7856 339,-550.7856 343,-556.7856 339.0001,-562.7856"/>
</g>
<!-- Position -->
<g id="node10" class="node">
<title>Position</title>
<polygon fill="none" stroke="#000000" points="526.5,-587.5 526.5,-665.5 679.5,-665.5 679.5,-587.5 526.5,-587.5"/>
<text text-anchor="middle" x="603" y="-655.1" font-family="Bitstream Vera Sans" font-size="8.00" fill="#000000">Position</text>
<polyline fill="none" stroke="#000000" points="526.5,-648.5 679.5,-648.5 "/>
<text text-anchor="start" x="534.5" y="-638.1" font-family="Bitstream Vera Sans" font-size="8.00" fill="#000000">&#45; self: bool </text>
<text text-anchor="start" x="534.5" y="-629.1" font-family="Bitstream Vera Sans" font-size="8.00" fill="#000000"> &#45; index: int </text>
<polyline fill="none" stroke="#000000" points="526.5,-622.5 679.5,-622.5 "/>
<text text-anchor="start" x="534.5" y="-612.1" font-family="Bitstream Vera Sans" font-size="8.00" fill="#000000">+ Position(self: bool, index: int) </text>
<text text-anchor="start" x="534.5" y="-603.1" font-family="Bitstream Vera Sans" font-size="8.00" fill="#000000"> + isSelf(): bool </text>
<text text-anchor="start" x="534.5" y="-594.1" font-family="Bitstream Vera Sans" font-size="8.00" fill="#000000"> + getIndex(): int </text>
</g>
</g>
</svg>
