<?xml version="1.0" encoding="UTF-8" standalone="no"?>
<!DOCTYPE svg PUBLIC "-//W3C//DTD SVG 1.1//EN"
 "http://www.w3.org/Graphics/SVG/1.1/DTD/svg11.dtd">
<!-- Generated by graphviz version 2.40.1 (0)
 -->
<!-- Title: ClassDiagram Pages: 1 -->
<svg width="428pt" height="435pt"
 viewBox="0.00 0.00 427.50 435.00" xmlns="http://www.w3.org/2000/svg" xmlns:xlink="http://www.w3.org/1999/xlink">
<g id="graph0" class="graph" transform="scale(1 1) rotate(0) translate(4 431)">
<title>ClassDiagram</title>
<polygon fill="#ffffff" stroke="transparent" points="-4,4 -4,-431 423.5,-431 423.5,4 -4,4"/>
<!-- Partida -->
<g id="node1" class="node">
<title>Partida</title>
<polygon fill="none" stroke="#000000" points="154,-.5 154,-43.5 297,-43.5 297,-.5 154,-.5"/>
<text text-anchor="middle" x="225.5" y="-33.1" font-family="Bitstream Vera Sans" font-size="8.00" fill="#000000">Partida</text>
<polyline fill="none" stroke="#000000" points="154,-26.5 297,-26.5 "/>
<text text-anchor="start" x="162" y="-16.1" font-family="Bitstream Vera Sans" font-size="8.00" fill="#000000">+ jogadores : pair&lt;Jogador&gt; </text>
<text text-anchor="start" x="162" y="-7.1" font-family="Bitstream Vera Sans" font-size="8.00" fill="#000000"> + turno : Turno </text>
</g>
<!-- Turno -->
<g id="node2" class="node">
<title>Turno</title>
<polygon fill="none" stroke="#000000" points="108.5,-89.5 108.5,-132.5 184.5,-132.5 184.5,-89.5 108.5,-89.5"/>
<text text-anchor="middle" x="146.5" y="-122.1" font-family="Bitstream Vera Sans" font-size="8.00" fill="#000000">Turno</text>
<polyline fill="none" stroke="#000000" points="108.5,-115.5 184.5,-115.5 "/>
<text text-anchor="start" x="116.5" y="-105.1" font-family="Bitstream Vera Sans" font-size="8.00" fill="#000000">+ fase : Fase </text>
<text text-anchor="start" x="116.5" y="-96.1" font-family="Bitstream Vera Sans" font-size="8.00" fill="#000000"> + vez : Vez </text>
</g>
<!-- Turno&#45;&gt;Partida -->
<g id="edge5" class="edge">
<title>Turno&#45;&gt;Partida</title>
<path fill="none" stroke="#000000" d="M169.25,-89.4556C169.25,-89.4556 169.25,-55.6545 169.25,-55.6545"/>
<polygon fill="#000000" stroke="#000000" points="169.2501,-55.6545 165.25,-49.6545 169.25,-43.6545 173.25,-49.6545 169.2501,-55.6545"/>
</g>
<!-- Fase -->
<g id="node3" class="node">
<title>Fase</title>
<polygon fill="none" stroke="#000000" points="0,-178.5 0,-248.5 101,-248.5 101,-178.5 0,-178.5"/>
<text text-anchor="start" x="8" y="-238.1" font-family="Bitstream Vera Sans" font-size="8.00" fill="#000000">&lt;&lt;enumeration&gt;&gt; </text>
<text text-anchor="middle" x="50.5" y="-229.1" font-family="Bitstream Vera Sans" font-size="8.00" fill="#000000"> Fase</text>
<polyline fill="none" stroke="#000000" points="0,-222.5 101,-222.5 "/>
<text text-anchor="start" x="8" y="-212.1" font-family="Bitstream Vera Sans" font-size="8.00" fill="#000000">Compra </text>
<text text-anchor="start" x="8" y="-203.1" font-family="Bitstream Vera Sans" font-size="8.00" fill="#000000"> Posicionamento </text>
<text text-anchor="start" x="8" y="-194.1" font-family="Bitstream Vera Sans" font-size="8.00" fill="#000000"> Invocação </text>
<text text-anchor="start" x="8" y="-185.1" font-family="Bitstream Vera Sans" font-size="8.00" fill="#000000"> Batalha </text>
</g>
<!-- Fase&#45;&gt;Turno -->
<g id="edge4" class="edge">
<title>Fase&#45;&gt;Turno</title>
<path fill="none" stroke="#000000" d="M101.2538,-182C108.6069,-182 113.75,-182 113.75,-182 113.75,-182 113.75,-144.6881 113.75,-144.6881"/>
<polygon fill="#000000" stroke="#000000" points="113.7501,-144.6881 109.75,-138.6882 113.75,-132.6881 117.75,-138.6881 113.7501,-144.6881"/>
</g>
<!-- Vez -->
<g id="node4" class="node">
<title>Vez</title>
<polygon fill="none" stroke="#000000" points="119,-187.5 119,-239.5 220,-239.5 220,-187.5 119,-187.5"/>
<text text-anchor="start" x="127" y="-229.1" font-family="Bitstream Vera Sans" font-size="8.00" fill="#000000">&lt;&lt;enumeration&gt;&gt; </text>
<text text-anchor="middle" x="169.5" y="-220.1" font-family="Bitstream Vera Sans" font-size="8.00" fill="#000000"> Vez</text>
<polyline fill="none" stroke="#000000" points="119,-213.5 220,-213.5 "/>
<text text-anchor="start" x="127" y="-203.1" font-family="Bitstream Vera Sans" font-size="8.00" fill="#000000">PrimeiroJogador </text>
<text text-anchor="start" x="127" y="-194.1" font-family="Bitstream Vera Sans" font-size="8.00" fill="#000000"> SegundoJogador </text>
</g>
<!-- Vez&#45;&gt;Turno -->
<g id="edge3" class="edge">
<title>Vez&#45;&gt;Turno</title>
<path fill="none" stroke="#000000" d="M151.75,-187.3697C151.75,-187.3697 151.75,-144.5879 151.75,-144.5879"/>
<polygon fill="#000000" stroke="#000000" points="151.7501,-144.5879 147.75,-138.588 151.75,-132.5879 155.75,-138.5879 151.7501,-144.5879"/>
</g>
<!-- Jogador -->
<g id="node5" class="node">
<title>Jogador</title>
<polygon fill="none" stroke="#000000" points="202.5,-80.5 202.5,-141.5 406.5,-141.5 406.5,-80.5 202.5,-80.5"/>
<text text-anchor="middle" x="304.5" y="-131.1" font-family="Bitstream Vera Sans" font-size="8.00" fill="#000000">Jogador</text>
<polyline fill="none" stroke="#000000" points="202.5,-124.5 406.5,-124.5 "/>
<text text-anchor="start" x="210.5" y="-114.1" font-family="Bitstream Vera Sans" font-size="8.00" fill="#000000">+ baralho : stack&lt;Carta&gt; </text>
<text text-anchor="start" x="210.5" y="-105.1" font-family="Bitstream Vera Sans" font-size="8.00" fill="#000000"> + mão : vector&lt;Carta&gt; </text>
<text text-anchor="start" x="210.5" y="-96.1" font-family="Bitstream Vera Sans" font-size="8.00" fill="#000000"> + campo : pair&lt;optional&lt;CartaMonstro&gt;&gt; </text>
<text text-anchor="start" x="210.5" y="-87.1" font-family="Bitstream Vera Sans" font-size="8.00" fill="#000000"> + vida : int </text>
</g>
<!-- Jogador&#45;&gt;Partida -->
<g id="edge8" class="edge">
<title>Jogador&#45;&gt;Partida</title>
<path fill="none" stroke="#000000" d="M249.75,-80.3712C249.75,-80.3712 249.75,-55.7007 249.75,-55.7007"/>
<polygon fill="none" stroke="#000000" points="249.7501,-55.7007 245.75,-49.7007 249.75,-43.7007 253.75,-49.7007 249.7501,-55.7007"/>
</g>
<!-- Carta -->
<g id="node6" class="node">
<title>Carta</title>
<polygon fill="none" stroke="#000000" points="261.5,-195.5 261.5,-231.5 347.5,-231.5 347.5,-195.5 261.5,-195.5"/>
<text text-anchor="middle" x="304.5" y="-220.6" font-family="Bitstream Vera Sans" font-size="8.00" fill="#000000">Carta</text>
<polyline fill="none" stroke="#000000" points="261.5,-213.5 347.5,-213.5 "/>
<text text-anchor="start" x="269.5" y="-202.6" font-family="Bitstream Vera Sans" font-size="8.00" fill="#000000">+ nome : string </text>
</g>
<!-- Carta&#45;&gt;Jogador -->
<g id="edge7" class="edge">
<title>Carta&#45;&gt;Jogador</title>
<path fill="none" stroke="#000000" d="M304.5,-195.1751C304.5,-195.1751 304.5,-153.6254 304.5,-153.6254"/>
<polygon fill="none" stroke="#000000" points="304.5001,-153.6254 300.5,-147.6254 304.5,-141.6254 308.5,-147.6253 304.5001,-153.6254"/>
</g>
<!-- CartaMágica -->
<g id="node7" class="node">
<title>CartaMágica</title>
<polygon fill="none" stroke="#000000" points="192,-293.5 192,-329.5 295,-329.5 295,-293.5 192,-293.5"/>
<text text-anchor="middle" x="243.5" y="-318.6" font-family="Bitstream Vera Sans" font-size="8.00" fill="#000000">CartaMágica</text>
<polyline fill="none" stroke="#000000" points="192,-311.5 295,-311.5 "/>
<text text-anchor="start" x="200" y="-300.6" font-family="Bitstream Vera Sans" font-size="8.00" fill="#000000">+ descrição : string </text>
</g>
<!-- CartaMágica&#45;&gt;Carta -->
<g id="edge1" class="edge">
<title>CartaMágica&#45;&gt;Carta</title>
<path fill="none" stroke="#000000" d="M278.25,-293.0669C278.25,-293.0669 278.25,-241.5193 278.25,-241.5193"/>
<polygon fill="none" stroke="#000000" points="281.7501,-241.5193 278.25,-231.5193 274.7501,-241.5193 281.7501,-241.5193"/>
</g>
<!-- CartaMonstro -->
<g id="node8" class="node">
<title>CartaMonstro</title>
<polygon fill="none" stroke="#000000" points="313.5,-285.5 313.5,-337.5 419.5,-337.5 419.5,-285.5 313.5,-285.5"/>
<text text-anchor="middle" x="366.5" y="-327.1" font-family="Bitstream Vera Sans" font-size="8.00" fill="#000000">CartaMonstro</text>
<polyline fill="none" stroke="#000000" points="313.5,-320.5 419.5,-320.5 "/>
<text text-anchor="start" x="321.5" y="-310.1" font-family="Bitstream Vera Sans" font-size="8.00" fill="#000000">+ ataque : int </text>
<text text-anchor="start" x="321.5" y="-301.1" font-family="Bitstream Vera Sans" font-size="8.00" fill="#000000"> + defesa : int </text>
<text text-anchor="start" x="321.5" y="-292.1" font-family="Bitstream Vera Sans" font-size="8.00" fill="#000000"> + posição : Posição </text>
</g>
<!-- CartaMonstro&#45;&gt;Carta -->
<g id="edge2" class="edge">
<title>CartaMonstro&#45;&gt;Carta</title>
<path fill="none" stroke="#000000" d="M330.5,-285.4951C330.5,-285.4951 330.5,-241.5586 330.5,-241.5586"/>
<polygon fill="none" stroke="#000000" points="334.0001,-241.5585 330.5,-231.5586 327.0001,-241.5586 334.0001,-241.5585"/>
</g>
<!-- Posição -->
<g id="node9" class="node">
<title>Posição</title>
<polygon fill="none" stroke="#000000" points="316,-374.5 316,-426.5 417,-426.5 417,-374.5 316,-374.5"/>
<text text-anchor="start" x="324" y="-416.1" font-family="Bitstream Vera Sans" font-size="8.00" fill="#000000">&lt;&lt;enumeration&gt;&gt; </text>
<text text-anchor="middle" x="366.5" y="-407.1" font-family="Bitstream Vera Sans" font-size="8.00" fill="#000000"> Posição</text>
<polyline fill="none" stroke="#000000" points="316,-400.5 417,-400.5 "/>
<text text-anchor="start" x="324" y="-390.1" font-family="Bitstream Vera Sans" font-size="8.00" fill="#000000">Ataque </text>
<text text-anchor="start" x="324" y="-381.1" font-family="Bitstream Vera Sans" font-size="8.00" fill="#000000"> Defesa </text>
</g>
<!-- Posição&#45;&gt;CartaMonstro -->
<g id="edge6" class="edge">
<title>Posição&#45;&gt;CartaMonstro</title>
<path fill="none" stroke="#000000" d="M366.5,-374.2784C366.5,-374.2784 366.5,-349.5341 366.5,-349.5341"/>
<polygon fill="#000000" stroke="#000000" points="366.5001,-349.5341 362.5,-343.5342 366.5,-337.5341 370.5,-343.5341 366.5001,-349.5341"/>
</g>
</g>
</svg>
